<svg id="settings" viewBox="0 0 16 16" fill="none" xmlns="http://www.w3.org/2000/svg">
<path d="M6.34375 9.65625C6.80208 10.1146 7.35417 10.3438 8 10.3438C8.64583 10.3438 9.19792 10.1146 9.65625 9.65625C10.1146 9.19792 10.3438 8.64583 10.3438 8C10.3438 7.35417 10.1146 6.80208 9.65625 6.34375C9.19792 5.88542 8.64583 5.65625 8 5.65625C7.35417 5.65625 6.80208 5.88542 6.34375 6.34375C5.88542 6.80208 5.65625 7.35417 5.65625 8C5.65625 8.64583 5.88542 9.19792 6.34375 9.65625ZM12.9688 8.65625L14.375 9.75C14.5208 9.85417 14.5417 10 14.4375 10.1875L13.0938 12.5C13.0104 12.6458 12.875 12.6875 12.6875 12.625L11.0312 11.9688C10.5938 12.2812 10.2188 12.5 9.90625 12.625L9.65625 14.375C9.61458 14.5625 9.51042 14.6562 9.34375 14.6562H6.65625C6.48958 14.6562 6.38542 14.5625 6.34375 14.375L6.09375 12.625C5.69792 12.4583 5.32292 12.2396 4.96875 11.9688L3.3125 12.625C3.125 12.6875 2.98958 12.6458 2.90625 12.5L1.5625 10.1875C1.45833 10 1.47917 9.85417 1.625 9.75L3.03125 8.65625C3.01042 8.51042 3 8.29167 3 8C3 7.70833 3.01042 7.48958 3.03125 7.34375L1.625 6.25C1.47917 6.14583 1.45833 6 1.5625 5.8125L2.90625 3.5C2.98958 3.35417 3.125 3.3125 3.3125 3.375L4.96875 4.03125C5.40625 3.71875 5.78125 3.5 6.09375 3.375L6.34375 1.625C6.38542 1.4375 6.48958 1.34375 6.65625 1.34375H9.34375C9.51042 1.34375 9.61458 1.4375 9.65625 1.625L9.90625 3.375C10.3021 3.54167 10.6771 3.76042 11.0312 4.03125L12.6875 3.375C12.875 3.3125 13.0104 3.35417 13.0938 3.5L14.4375 5.8125C14.5417 6 14.5208 6.14583 14.375 6.25L12.9688 7.34375C12.9896 7.48958 13 7.70833 13 8C13 8.29167 12.9896 8.51042 12.9688 8.65625Z" fill="currentColor"/>
</svg>
